<?xml version="1.0" encoding="utf-8"?>
<!-- Svg Vector Icons : http://www.onlinewebfonts.com/icon -->
<!DOCTYPE svg PUBLIC "-//W3C//DTD SVG 1.1//EN" "http://www.w3.org/Graphics/SVG/1.1/DTD/svg11.dtd">
<svg version="1.1" xmlns="http://www.w3.org/2000/svg" xmlns:xlink="http://www.w3.org/1999/xlink" x="0px" y="0px" viewBox="0 0 256 256" enable-background="new 0 0 256 256" xml:space="preserve">
<metadata> Svg Vector Icons : http://www.onlinewebfonts.com/icon </metadata>
<g><g><path fill="#000000" d="M220.7,170v-37.9v-4.2c0-4.6-3.8-8.4-8.4-8.4h-75.9V85.7h15.7c5.3,0,9.6-4.3,9.6-9.6V27.9c0-5.3-4.3-9.6-9.6-9.6h-48.2c-5.3,0-9.6,4.3-9.6,9.6v48.2c0,5.3,4.3,9.6,9.6,9.6h15.7v33.7H43.7c-4.6,0-8.4,3.8-8.4,8.4v8.4v34H19.6c-5.3,0-9.6,4.3-9.6,9.6v48.2c0,5.3,4.3,9.6,9.6,9.6h48.2c5.3,0,9.6-4.3,9.6-9.6v-48.2c0-5.3-4.3-9.6-9.6-9.6H52.1v-34h67.4V170h-15.7c-5.3,0-9.6,4.3-9.6,9.6v48.2c0,5.3,4.3,9.6,9.6,9.6h48.2c5.3,0,9.6-4.3,9.6-9.6v-48.2c0-5.3-4.3-9.6-9.6-9.6h-15.7v-33.7h67.4V170h-15.7c-5.3,0-9.6,4.3-9.6,9.6v48.2c0,5.3,4.3,9.6,9.6,9.6h48.2c5.3,0,9.6-4.3,9.6-9.6v-48.2c0-5.3-4.3-9.6-9.6-9.6L220.7,170L220.7,170z M111.1,35.1h33.7v33.7h-33.7V35.1L111.1,35.1z M60.6,220.9H26.9v-33.7h33.7V220.9L60.6,220.9z M144.9,220.5h-33.7v-33.7h33.7V220.5L144.9,220.5z M229.1,220.5h-33.7v-33.7h33.7V220.5L229.1,220.5z"/></g></g>
</svg>